<?xml version="1.0" encoding="UTF-8"?> <svg xmlns="http://www.w3.org/2000/svg" width="267" height="32" viewBox="0 0 267 32" fill="none"><g clip-path="url(#clip0)"><path fill-rule="evenodd" clip-rule="evenodd" d="M26.2084 20.8736C26.2084 26.9728 30.5046 31.8336 38.5743 31.8336C46.6441 31.8336 50.9883 26.9728 50.9883 20.8736V5.3376C50.9883 2.4784 49.2218 0.1904 45.9756 0.1904C42.7278 0.1904 40.9612 2.4784 40.9612 5.3376V20.5856C40.9612 21.8736 40.2463 23.208 38.5743 23.208C36.9039 23.208 36.282 21.8736 36.282 20.5872V5.3376C36.282 2.4784 34.4689 0.1904 31.2211 0.1904C27.975 0.1904 26.2084 2.4784 26.2084 5.3376V20.8736V20.8736ZM13.174 31.5936H6.01161C2.00239 31.5936 0.0915527 29.4016 0.0915527 26.448V5.432C0.0915527 2.48 2.00239 0.288 6.01161 0.288H12.0759C18.4256 0.288 22.5326 3.3376 22.5326 9.056C22.5326 11.4864 21.6253 13.2016 20.6218 14.2032L20.5 14.3232C20.2948 14.5216 20.1922 14.6208 20.1922 14.8224C20.1922 14.9856 20.4038 15.1488 20.6138 15.312L20.718 15.3936L20.7596 15.4256C21.449 15.9536 24.0122 17.9136 24.0122 22.0656C24.0122 27.3552 19.9052 31.5968 13.174 31.5968V31.5936ZM9.02053 11.7232C9.02053 12.344 9.40205 12.8208 10.2613 12.8208H10.9298C13.1259 12.8208 13.7944 11.2 13.7944 10.056C13.7944 8.8176 13.1259 7.3888 10.9298 7.3888H10.2613C9.40205 7.3888 9.02053 7.864 9.02053 8.4848V11.7248V11.7232ZM11.1686 18.5392H10.2613C9.40205 18.5392 9.02053 19.016 9.02053 19.6352V23.352C9.02053 23.9712 9.40205 24.448 10.2613 24.448H11.1686C13.6052 24.448 14.3202 22.6848 14.3202 21.4464C14.3202 20.064 13.6036 18.5392 11.1686 18.5392V18.5392ZM63.545 12.5344C63.545 13.1536 63.9265 13.6304 64.7873 13.6304H65.5023C67.6504 13.6304 68.3205 12.0576 68.3205 10.8672C68.3205 9.6272 67.652 8.1984 65.5023 8.1984H64.7873C63.9265 8.1984 63.545 8.6752 63.545 9.2944V12.5344ZM59.0565 31.8352C55.8103 31.8352 54.0437 29.5472 54.0437 26.688V5.432C54.0437 2.48 56.001 0.288 60.0135 0.288H65.6947C72.1405 0.288 77.4883 3.7184 77.4883 9.7712C77.4883 13.7744 75.6736 16.3472 74.0978 17.4432C73.6217 17.776 73.5256 18.1104 73.6682 18.4912C74.2517 20.056 75.4636 21.5376 76.8342 23.2112L77.1068 23.5424C78.0141 24.6384 78.7307 25.8304 78.7307 27.4512C78.7307 29.8816 76.4864 31.8352 73.8125 31.8352C72.1886 31.8352 70.5647 31.168 68.8463 29.0224C67.5093 27.3552 66.4593 24.0192 65.8389 21.6368C65.6947 21.0656 65.5039 20.7312 64.8835 20.7312C64.4058 20.7312 64.0724 21.0176 64.0724 21.6368V26.688C64.0724 29.5472 62.3058 31.8352 59.0597 31.8352H59.0565ZM135.975 31.8352C132.728 31.8352 130.961 29.5472 130.961 26.688V5.432C130.961 2.48 132.872 0.288 136.883 0.288H142.612C149.056 0.288 154.358 3.7184 154.358 9.7712C154.358 13.7744 152.543 16.3472 150.967 17.4432C150.489 17.776 150.441 18.1104 150.586 18.4912C151.206 20.16 152.304 21.4944 154.023 23.5424C154.93 24.6384 155.646 25.8304 155.646 27.4512C155.646 29.8816 153.354 31.8352 150.728 31.8352C149.104 31.8352 147.529 31.12 145.762 29.0224C144.379 27.3552 143.136 24.0672 142.707 21.6368C142.61 21.0656 142.421 20.7312 141.799 20.7312C141.275 20.7312 140.988 21.0176 140.988 21.6368V26.688C140.988 29.5472 139.222 31.8352 135.975 31.8352V31.8352ZM177.036 20.8272V26.736C177.036 29.5472 175.173 31.8352 172.023 31.8352C168.775 31.8352 166.961 29.5472 166.961 26.736V5.3376C166.961 2.4784 168.775 0.2384 172.023 0.2384C175.173 0.2384 177.036 2.4784 177.036 5.3376V10.008C177.036 10.3408 177.179 10.6752 177.562 10.6752C177.847 10.6752 177.991 10.5792 178.325 10.1984C179.614 8.72 181.286 6.0528 182.478 3.5744C183.815 0.8576 185.726 0.1904 187.348 0.1904C190.022 0.1904 192.363 2.096 192.363 4.7664C192.363 5.7664 191.933 6.7664 191.598 7.4816C190.5 9.8176 187.541 12.7712 186.25 14.0576C185.917 14.392 185.773 14.6304 185.773 15.0112C185.773 15.2144 185.877 15.4864 185.997 15.7984L186.059 15.9648C186.776 17.9168 188.924 20.7296 190.835 22.8736L190.864 22.9072C191.765 23.9008 192.84 25.0864 192.84 26.8768C192.84 29.736 190.215 31.8336 187.493 31.8336C185.821 31.8336 184.245 30.976 183.004 29.6896C180.999 27.64 179.232 23.5408 178.325 20.8736C178.182 20.4432 177.991 20.1584 177.562 20.1584C177.179 20.1584 177.036 20.4432 177.036 20.8256V20.8272ZM217.763 26.688V19.016C217.763 18.4912 217.906 18.2528 218.287 18.2528C218.431 18.2528 218.718 18.3488 218.956 18.8256L223.396 27.7376C225.068 31.12 226.883 31.8336 228.792 31.8336C232.134 31.8336 233.995 29.4992 233.995 26.5456V5.3376C233.995 2.4784 232.182 0.1904 229.031 0.1904C225.737 0.1904 223.922 2.4784 223.922 5.3376V12.8672C223.922 13.3904 223.731 13.6768 223.444 13.6768C223.253 13.6768 222.966 13.6288 222.728 13.1056L218.335 4.2896C216.617 0.8576 214.802 0.1904 212.893 0.1904C209.551 0.1904 207.688 2.5744 207.688 5.48V26.688C207.688 29.5472 209.502 31.8352 212.797 31.8352C215.9 31.8352 217.763 29.5472 217.763 26.688ZM119.264 19.6832H122.797C125.185 19.6832 127.141 18.3008 127.141 15.8704C127.141 13.44 125.185 12.0576 122.797 12.0576H119.264C118.404 12.0576 118.023 11.5824 118.023 10.9616V10.2C118.023 9.5808 118.404 9.104 119.264 9.104H123.848C126.665 9.104 128.909 7.5312 128.909 4.672C128.909 1.8608 126.665 0.288 123.848 0.288H114.251C110.24 0.288 108.331 2.48 108.331 5.4336V26.448C108.331 29.4032 110.24 31.5952 114.251 31.5952H123.847C126.663 31.5952 128.908 30.0224 128.908 27.1632C128.908 24.352 126.663 22.7792 123.847 22.7792H119.262C118.403 22.7792 118.021 22.3024 118.021 21.6832V20.7776C118.021 20.1584 118.403 19.6816 119.262 19.6816L119.264 19.6832ZM94.0061 0C98.3503 0 101.217 1 103.222 2.5728C104.32 3.4304 105.083 4.6224 105.083 6.2896C105.083 8.4816 103.317 10.5792 100.739 10.5792C99.721 10.5792 99.0557 10.2448 98.3295 9.8816C97.4575 9.4416 96.4956 8.9584 94.7227 8.9584C92.0969 8.9584 88.7064 10.8656 88.7064 16.1072C88.7064 20.8256 91.1911 23.3504 94.8188 23.3504C96.0115 23.3504 97.015 22.7792 97.015 21.9216C97.015 21.2544 96.4411 20.968 95.5354 20.968C93.7207 20.968 91.3338 19.6816 91.3338 17.0128C91.3338 14.0112 93.5781 12.6768 96.4411 12.6768H98.0169C103.461 12.6768 106.181 15.7264 106.181 20.1584C106.181 27.1152 101.359 31.8816 93.7207 31.8816C86.4638 31.8816 79.1106 26.8768 79.1106 16.1072C79.1106 4.8608 86.4638 0 94.0061 0ZM140.414 12.5328C140.414 13.152 140.846 13.6288 141.705 13.6288H142.421C144.521 13.6288 145.19 12.056 145.19 10.8656C145.19 9.6256 144.521 8.1968 142.421 8.1968H141.705C140.846 8.1968 140.416 8.6736 140.416 9.2928V12.5328H140.414ZM194.607 5.3376V26.6864C194.607 29.5456 196.374 31.8336 199.62 31.8336C202.866 31.8336 204.632 29.5456 204.632 26.6864V5.3376C204.632 2.4784 202.866 0.1904 199.62 0.1904C196.374 0.1904 194.607 2.4784 194.607 5.3376V5.3376ZM251.279 0C255.625 0 258.49 1 260.495 2.5728C261.593 3.4304 262.357 4.6224 262.357 6.2896C262.357 8.4816 260.59 10.5792 258.012 10.5792C256.993 10.5792 256.329 10.2448 255.603 9.88C254.731 9.4416 253.769 8.9584 251.996 8.9584C249.37 8.9584 245.98 10.8656 245.98 16.1072C245.98 20.8256 248.463 23.3504 252.092 23.3504C253.285 23.3504 254.288 22.7792 254.288 21.9216C254.288 21.2544 253.715 20.968 252.807 20.968C250.994 20.968 248.606 19.6816 248.606 17.0128C248.606 14.0112 250.85 12.6768 253.715 12.6768H255.29C260.734 12.6768 263.455 15.7264 263.455 20.1584C263.455 27.1152 258.633 31.8816 250.994 31.8816C243.736 31.8816 236.384 26.8768 236.384 16.1072C236.384 4.8608 243.736 0 251.279 0V0ZM265.829 29.6368C265.829 29.7968 265.696 29.9168 265.454 29.9168H265.16V29.3696H265.494C265.708 29.3696 265.829 29.4624 265.829 29.6368V29.6368ZM264.745 29.1968V30.8656C264.745 30.9712 264.84 31.0656 264.945 31.0656C265.067 31.0656 265.16 30.9712 265.16 30.8656V30.2896H265.228L265.816 30.9856C265.856 31.0384 265.909 31.0784 265.989 31.0784C266.109 31.0784 266.189 30.9984 266.189 30.8784C266.189 30.8384 266.164 30.7856 266.124 30.7456L265.681 30.2496C266.084 30.184 266.257 29.9168 266.257 29.6096C266.257 29.2496 265.949 28.9824 265.508 28.9824H264.945C264.84 28.9824 264.745 29.0896 264.745 29.1968V29.1968ZM265.428 28.4608C266.189 28.4608 266.965 29.0368 266.965 30.024C266.965 31.0512 266.189 31.6 265.428 31.6C264.665 31.6 263.889 31.0512 263.889 30.024C263.889 29.0368 264.665 28.4624 265.428 28.4624V28.4608ZM265.428 28.0608C264.291 28.0608 263.461 28.9568 263.461 30.024C263.461 31.16 264.291 32 265.428 32C266.565 32 267.393 31.1728 267.393 30.024C267.393 28.9552 266.565 28.0608 265.428 28.0608Z" fill="#FFF"></path></g><defs><clipPath id="clip0"><rect width="267" height="32" fill="white"></rect></clipPath></defs></svg> 